<?xml version="1.0" encoding="UTF-8"?><svg xmlns="http://www.w3.org/2000/svg" xmlns:xlink="http://www.w3.org/1999/xlink" fill-opacity="1" color-rendering="auto" color-interpolation="auto" text-rendering="auto" stroke="black" stroke-linecap="square" width="909" stroke-miterlimit="10" shape-rendering="auto" stroke-opacity="1" fill="black" stroke-dasharray="none" font-weight="normal" stroke-width="1" height="554" font-family="'Dialog'" font-style="normal" stroke-linejoin="miter" font-size="12px" stroke-dashoffset="0" image-rendering="auto">
  <!--Generated by ySVG 2.5-->
  <defs id="genericDefs"/>
  <g>
    <defs id="defs1">
      <linearGradient x1="651.84" gradientUnits="userSpaceOnUse" x2="878.1866" y1="409.62" y2="487.38" id="linearGradient1" spreadMethod="reflect">
        <stop stop-opacity="1" stop-color="rgb(232,238,247)" offset="0%"/>
        <stop stop-opacity="1" stop-color="rgb(183,201,227)" offset="100%"/>
      </linearGradient>
      <linearGradient x1="340" gradientUnits="userSpaceOnUse" x2="631.84" y1="403.54" y2="493.46" id="linearGradient2" spreadMethod="reflect">
        <stop stop-opacity="1" stop-color="rgb(232,238,247)" offset="0%"/>
        <stop stop-opacity="1" stop-color="rgb(183,201,227)" offset="100%"/>
      </linearGradient>
      <linearGradient x1="0" gradientUnits="userSpaceOnUse" x2="320" y1="373" y2="524" id="linearGradient3" spreadMethod="reflect">
        <stop stop-opacity="1" stop-color="rgb(232,238,247)" offset="0%"/>
        <stop stop-opacity="1" stop-color="rgb(183,201,227)" offset="100%"/>
      </linearGradient>
      <linearGradient x1="307.42" gradientUnits="userSpaceOnUse" x2="664.42" y1="228.5" y2="332.5" id="linearGradient4" spreadMethod="reflect">
        <stop stop-opacity="1" stop-color="rgb(232,238,247)" offset="0%"/>
        <stop stop-opacity="1" stop-color="rgb(183,201,227)" offset="100%"/>
      </linearGradient>
      <linearGradient x1="228.42" gradientUnits="userSpaceOnUse" x2="743.42" y1="0" y2="188" id="linearGradient5" spreadMethod="reflect">
        <stop stop-opacity="1" stop-color="rgb(232,238,247)" offset="0%"/>
        <stop stop-opacity="1" stop-color="rgb(183,201,227)" offset="100%"/>
      </linearGradient>
      <clipPath clipPathUnits="userSpaceOnUse" id="clipPath1">
        <path d="M0 0 L909 0 L909 554 L0 554 L0 0 Z"/>
      </clipPath>
      <clipPath clipPathUnits="userSpaceOnUse" id="clipPath2">
        <path d="M-15 -15 L894 -15 L894 539 L-15 539 L-15 -15 Z"/>
      </clipPath>
    </defs>
    <g fill="white" text-rendering="geometricPrecision" shape-rendering="geometricPrecision" transform="translate(15,15)" stroke="white">
      <rect x="-15" width="909" height="554" y="-15" clip-path="url(#clipPath2)" stroke="none"/>
    </g>
    <g fill="url(#linearGradient1)" text-rendering="geometricPrecision" shape-rendering="geometricPrecision" transform="matrix(1,0,0,1,15,15)" stroke="url(#linearGradient1)">
      <path d="M651.84 409.62 L878.1866 409.62 L878.1866 487.38 L651.84 487.38 Z" stroke="none" clip-path="url(#clipPath2)"/>
    </g>
    <g text-rendering="geometricPrecision" stroke-miterlimit="1.45" shape-rendering="geometricPrecision" transform="matrix(1,0,0,1,15,15)" stroke-linecap="butt">
      <path fill="none" d="M651.84 409.62 L878.1866 409.62 L878.1866 487.38 L651.84 487.38 Z" clip-path="url(#clipPath2)"/>
      <text x="680.6676" xml:space="preserve" y="424.7168" clip-path="url(#clipPath2)" font-family="sans-serif" stroke="none">Stage 3: Rice Harvest Stage</text>
      <text x="763.1061" xml:space="preserve" y="438.6855" clip-path="url(#clipPath2)" font-family="sans-serif" stroke="none"> </text>
      <text x="669.0719" xml:space="preserve" y="452.6543" clip-path="url(#clipPath2)" font-family="sans-serif" stroke="none">Decrease in backscatter during </text>
      <text x="675.9508" xml:space="preserve" y="466.623" clip-path="url(#clipPath2)" font-family="sans-serif" stroke="none">the rice harvest stage due to </text>
      <text x="672.2213" xml:space="preserve" y="480.5918" clip-path="url(#clipPath2)" font-family="sans-serif" stroke="none">surface scatter from open land</text>
    </g>
    <g fill="url(#linearGradient2)" text-rendering="geometricPrecision" shape-rendering="geometricPrecision" transform="matrix(1,0,0,1,15,15)" stroke="url(#linearGradient2)">
      <path d="M340 403.54 L631.84 403.54 L631.84 493.46 L340 493.46 Z" stroke="none" clip-path="url(#clipPath2)"/>
    </g>
    <g text-rendering="geometricPrecision" stroke-miterlimit="1.45" shape-rendering="geometricPrecision" transform="matrix(1,0,0,1,15,15)" stroke-linecap="butt">
      <path fill="none" d="M340 403.54 L631.84 403.54 L631.84 493.46 L340 493.46 Z" clip-path="url(#clipPath2)"/>
      <text x="408.5528" xml:space="preserve" y="424.7168" clip-path="url(#clipPath2)" font-family="sans-serif" stroke="none">Stage 2: Vegetative State</text>
      <text x="388.5724" xml:space="preserve" y="438.6855" clip-path="url(#clipPath2)" font-family="sans-serif" stroke="none">significant backscatter increase </text>
      <text x="387.1895" xml:space="preserve" y="452.6543" clip-path="url(#clipPath2)" font-family="sans-serif" stroke="none">during the vegetative stage due </text>
      <text x="405.7022" xml:space="preserve" y="466.623" clip-path="url(#clipPath2)" font-family="sans-serif" stroke="none">to volume scattering from </text>
      <text x="442.0128" xml:space="preserve" y="480.5918" clip-path="url(#clipPath2)" font-family="sans-serif" stroke="none">the rice plant. </text>
    </g>
    <g fill="url(#linearGradient3)" text-rendering="geometricPrecision" shape-rendering="geometricPrecision" transform="matrix(1,0,0,1,15,15)" stroke="url(#linearGradient3)">
      <path d="M0 373 L320 373 L320 524 L0 524 Z" stroke="none" clip-path="url(#clipPath2)"/>
    </g>
    <g text-rendering="geometricPrecision" stroke-miterlimit="1.45" shape-rendering="geometricPrecision" transform="matrix(1,0,0,1,15,15)" stroke-linecap="butt">
      <path fill="none" d="M0 373 L320 373 L320 524 L0 524 Z" clip-path="url(#clipPath2)"/>
      <text x="37.375" xml:space="preserve" y="424.7168" clip-path="url(#clipPath2)" font-family="sans-serif" stroke="none">Stage 1 : Flooding / Transplanting period</text>
      <text x="158.0928" xml:space="preserve" y="438.6855" clip-path="url(#clipPath2)" font-family="sans-serif" stroke="none"> </text>
      <text x="8.0605" xml:space="preserve" y="452.6543" clip-path="url(#clipPath2)" font-family="sans-serif" stroke="none">the SAR backscatter values are low for paddy rice </text>
      <text x="16.6738" xml:space="preserve" y="466.623" clip-path="url(#clipPath2)" font-family="sans-serif" stroke="none">during the flooding/transplanting period due to </text>
      <text x="92.0693" xml:space="preserve" y="480.5918" clip-path="url(#clipPath2)" font-family="sans-serif" stroke="none">the presence of water,</text>
    </g>
    <g fill="url(#linearGradient4)" text-rendering="geometricPrecision" shape-rendering="geometricPrecision" transform="matrix(1,0,0,1,15,15)" stroke="url(#linearGradient4)">
      <path d="M307.42 228.5 L664.42 228.5 L664.42 332.5 L307.42 332.5 Z" stroke="none" clip-path="url(#clipPath2)"/>
    </g>
    <g text-rendering="geometricPrecision" stroke-miterlimit="1.45" shape-rendering="geometricPrecision" transform="matrix(1,0,0,1,15,15)" stroke-linecap="butt">
      <path fill="none" d="M307.42 228.5 L664.42 228.5 L664.42 332.5 L307.42 332.5 Z" clip-path="url(#clipPath2)"/>
      <text x="380.1378" xml:space="preserve" y="263.7012" clip-path="url(#clipPath2)" font-family="sans-serif" stroke="none">Three distinct stages of Paddy Rice</text>
      <text x="484.0128" xml:space="preserve" y="277.6699" clip-path="url(#clipPath2)" font-family="sans-serif" stroke="none"> </text>
      <text x="323.252" xml:space="preserve" y="291.6387" clip-path="url(#clipPath2)" font-family="sans-serif" stroke="none">These stages provide distinct SAR backscatter values </text>
      <text x="343.0392" xml:space="preserve" y="305.6074" clip-path="url(#clipPath2)" font-family="sans-serif" stroke="none">that can be utilised for remote sensing analysis</text>
    </g>
    <g fill="url(#linearGradient5)" text-rendering="geometricPrecision" shape-rendering="geometricPrecision" transform="matrix(1,0,0,1,15,15)" stroke="url(#linearGradient5)">
      <path d="M228.42 0 L743.42 0 L743.42 188 L228.42 188 Z" stroke="none" clip-path="url(#clipPath2)"/>
    </g>
    <g text-rendering="geometricPrecision" stroke-miterlimit="1.45" shape-rendering="geometricPrecision" transform="matrix(1,0,0,1,15,15)" stroke-linecap="butt">
      <path fill="none" d="M228.42 0 L743.42 0 L743.42 188 L228.42 188 Z" clip-path="url(#clipPath2)"/>
      <text x="399.172" xml:space="preserve" y="42.2793" clip-path="url(#clipPath2)" font-family="sans-serif" stroke="none">Rice Paddy Crop Recognition</text>
      <text x="466.42" xml:space="preserve" y="56.248" clip-path="url(#clipPath2)" font-family="sans-serif" stroke="none">Goal : </text>
      <text x="236.8555" xml:space="preserve" y="70.2168" clip-path="url(#clipPath2)" font-family="sans-serif" stroke="none">- Generate a 10m paddy rice map for three distinct seasons for the state of Punjab</text>
      <text x="350.4747" xml:space="preserve" y="84.1855" clip-path="url(#clipPath2)" font-family="sans-serif" stroke="none">- Season : Boro (December / January to April)</text>
      <text x="365.129" xml:space="preserve" y="98.1543" clip-path="url(#clipPath2)" font-family="sans-serif" stroke="none">- Season : Aus (April / May to June / July)</text>
      <text x="351.544" xml:space="preserve" y="112.123" clip-path="url(#clipPath2)" font-family="sans-serif" stroke="none">- Season : Aman (July / August to November)</text>
      <text x="484.0128" xml:space="preserve" y="126.0918" clip-path="url(#clipPath2)" font-family="sans-serif" stroke="none"> </text>
      <text x="260.3282" xml:space="preserve" y="140.0605" clip-path="url(#clipPath2)" font-family="sans-serif" stroke="none">using GEE (Google Earth Engine) and time series Sentinel - 1 SAR imagery </text>
      <text x="429.087" xml:space="preserve" y="154.0293" clip-path="url(#clipPath2)" font-family="sans-serif" stroke="none">in 2020 and 2021. </text>
    </g>
    <g text-rendering="geometricPrecision" stroke-miterlimit="1.45" shape-rendering="geometricPrecision" transform="matrix(1,0,0,1,15,15)" stroke-linecap="butt">
      <path fill="none" d="M385.0646 332.4873 L313.5732 369.3385" clip-path="url(#clipPath2)"/>
    </g>
    <g text-rendering="geometricPrecision" stroke-miterlimit="1.45" shape-rendering="geometricPrecision" transform="matrix(1,0,0,1,15,15)" stroke-linecap="butt">
      <path d="M306.4623 373.0039 L319.4196 371.9501 L314.4621 368.8804 L314.8378 363.0615 Z" stroke="none" clip-path="url(#clipPath2)"/>
      <path fill="none" d="M485.92 332.4668 L485.92 395.5428" clip-path="url(#clipPath2)"/>
      <path d="M485.92 403.5428 L490.92 391.5428 L485.92 394.5428 L480.92 391.5428 Z" clip-path="url(#clipPath2)" stroke="none"/>
      <path fill="none" d="M572.2849 332.4873 L693.5793 405.5003" clip-path="url(#clipPath2)"/>
      <path d="M700.4333 409.6261 L692.7309 399.1537 L692.7225 404.9846 L687.5737 407.7212 Z" clip-path="url(#clipPath2)" stroke="none"/>
      <path fill="none" d="M485.92 188.024 L485.92 220.5274" clip-path="url(#clipPath2)"/>
      <path d="M485.92 228.5274 L490.92 216.5274 L485.92 219.5274 L480.92 216.5274 Z" clip-path="url(#clipPath2)" stroke="none"/>
    </g>
  </g>
</svg>
