<?xml version="1.0" encoding="UTF-8"?><svg xmlns="http://www.w3.org/2000/svg" xmlns:xlink="http://www.w3.org/1999/xlink" fill-opacity="1" color-rendering="auto" color-interpolation="auto" text-rendering="auto" stroke="black" stroke-linecap="square" width="1138" stroke-miterlimit="10" shape-rendering="auto" stroke-opacity="1" fill="black" stroke-dasharray="none" font-weight="normal" stroke-width="1" height="1070" font-family="'Dialog'" font-style="normal" stroke-linejoin="miter" font-size="12px" stroke-dashoffset="0" image-rendering="auto">
  <!--Generated by ySVG 2.5-->
  <defs id="genericDefs"/>
  <g>
    <defs id="defs1">
      <linearGradient x1="684.8226" gradientUnits="userSpaceOnUse" x2="966.8226" y1="0" y2="53" id="linearGradient1" spreadMethod="reflect">
        <stop stop-opacity="1" stop-color="rgb(232,238,247)" offset="0%"/>
        <stop stop-opacity="1" stop-color="rgb(183,201,227)" offset="100%"/>
      </linearGradient>
      <linearGradient x1="665.3226" gradientUnits="userSpaceOnUse" x2="986.3226" y1="73" y2="167" id="linearGradient2" spreadMethod="reflect">
        <stop stop-opacity="1" stop-color="rgb(232,238,247)" offset="0%"/>
        <stop stop-opacity="1" stop-color="rgb(183,201,227)" offset="100%"/>
      </linearGradient>
      <linearGradient x1="675.5726" gradientUnits="userSpaceOnUse" x2="976.0726" y1="187" y2="256" id="linearGradient3" spreadMethod="reflect">
        <stop stop-opacity="1" stop-color="rgb(232,238,247)" offset="0%"/>
        <stop stop-opacity="1" stop-color="rgb(183,201,227)" offset="100%"/>
      </linearGradient>
      <linearGradient x1="637.1821" gradientUnits="userSpaceOnUse" x2="1014.4631" y1="276" y2="370" id="linearGradient4" spreadMethod="reflect">
        <stop stop-opacity="1" stop-color="rgb(232,238,247)" offset="0%"/>
        <stop stop-opacity="1" stop-color="rgb(183,201,227)" offset="100%"/>
      </linearGradient>
      <linearGradient x1="612.6532" gradientUnits="userSpaceOnUse" x2="1038.9921" y1="473.4483" y2="554.9484" id="linearGradient5" spreadMethod="reflect">
        <stop stop-opacity="1" stop-color="rgb(232,238,247)" offset="0%"/>
        <stop stop-opacity="1" stop-color="rgb(183,201,227)" offset="100%"/>
      </linearGradient>
      <linearGradient x1="479.7095" gradientUnits="userSpaceOnUse" x2="751.7095" y1="674.3967" y2="768.3967" id="linearGradient6" spreadMethod="reflect">
        <stop stop-opacity="1" stop-color="rgb(232,238,247)" offset="0%"/>
        <stop stop-opacity="1" stop-color="rgb(183,201,227)" offset="100%"/>
      </linearGradient>
      <linearGradient x1="480.2095" gradientUnits="userSpaceOnUse" x2="736.2095" y1="803.8967" y2="872.8967" id="linearGradient7" spreadMethod="reflect">
        <stop stop-opacity="1" stop-color="rgb(232,238,247)" offset="0%"/>
        <stop stop-opacity="1" stop-color="rgb(183,201,227)" offset="100%"/>
      </linearGradient>
      <linearGradient x1="544.2095" gradientUnits="userSpaceOnUse" x2="800.2095" y1="903.8967" y2="987.8967" id="linearGradient8" spreadMethod="reflect">
        <stop stop-opacity="1" stop-color="rgb(232,238,247)" offset="0%"/>
        <stop stop-opacity="1" stop-color="rgb(183,201,227)" offset="100%"/>
      </linearGradient>
      <linearGradient x1="810.7095" gradientUnits="userSpaceOnUse" x2="1092.7095" y1="674.3967" y2="768.3967" id="linearGradient9" spreadMethod="reflect">
        <stop stop-opacity="1" stop-color="rgb(232,238,247)" offset="0%"/>
        <stop stop-opacity="1" stop-color="rgb(183,201,227)" offset="100%"/>
      </linearGradient>
      <linearGradient x1="782.7095" gradientUnits="userSpaceOnUse" x2="1005.7095" y1="799.3967" y2="877.3967" id="linearGradient10" spreadMethod="reflect">
        <stop stop-opacity="1" stop-color="lime" offset="0%"/>
        <stop stop-opacity="1" stop-color="rgb(183,201,227)" offset="100%"/>
      </linearGradient>
      <linearGradient x1="830.2095" gradientUnits="userSpaceOnUse" x2="1086.2095" y1="914.8967" y2="976.8967" id="linearGradient11" spreadMethod="reflect">
        <stop stop-opacity="1" stop-color="lime" offset="0%"/>
        <stop stop-opacity="1" stop-color="rgb(183,201,227)" offset="100%"/>
      </linearGradient>
      <linearGradient x1="15.0001" gradientUnits="userSpaceOnUse" x2="582.653" y1="385" y2="643.3967" id="linearGradient12" spreadMethod="reflect">
        <stop stop-opacity="1" stop-color="lime" offset="0%"/>
        <stop stop-opacity="1" stop-color="rgb(183,201,227)" offset="100%"/>
      </linearGradient>
      <clipPath clipPathUnits="userSpaceOnUse" id="clipPath1">
        <path d="M0 0 L1138 0 L1138 1070 L0 1070 L0 0 Z"/>
      </clipPath>
      <clipPath clipPathUnits="userSpaceOnUse" id="clipPath2">
        <path d="M-15 -52 L1123 -52 L1123 1018 L-15 1018 L-15 -52 Z"/>
      </clipPath>
    </defs>
    <g fill="white" text-rendering="geometricPrecision" shape-rendering="geometricPrecision" transform="translate(15,52)" stroke="white">
      <rect x="-15" width="1138" height="1070" y="-52" clip-path="url(#clipPath2)" stroke="none"/>
    </g>
    <g fill="rgb(245,245,245)" text-rendering="geometricPrecision" shape-rendering="geometricPrecision" transform="matrix(1,0,0,1,15,52)" stroke="rgb(245,245,245)">
      <rect x="0" y="-36.4609" clip-path="url(#clipPath2)" width="1107.7095" rx="4" ry="4" height="1039.3576" stroke="none"/>
      <rect x="0" y="-36.4609" clip-path="url(#clipPath2)" fill="rgb(235,235,235)" width="1107.7095" height="21.4609" stroke="none"/>
    </g>
    <g font-size="15px" stroke-linecap="butt" transform="matrix(1,0,0,1,15,52)" text-rendering="geometricPrecision" font-family="sans-serif" shape-rendering="geometricPrecision" stroke-miterlimit="1.45">
      <text x="845.9488" xml:space="preserve" y="-20.5376" clip-path="url(#clipPath2)" stroke="none">Rice Paddy  Recognition Algorithm</text>
      <rect x="0" y="-36.4609" clip-path="url(#clipPath2)" fill="none" width="1107.7095" stroke-dasharray="6,2" rx="4" ry="4" height="1039.3576"/>
    </g>
    <g fill="url(#linearGradient1)" text-rendering="geometricPrecision" shape-rendering="geometricPrecision" transform="matrix(1,0,0,1,15,52)" stroke="url(#linearGradient1)">
      <path d="M684.8226 0 L966.8226 0 L966.8226 53 L684.8226 53 Z" stroke="none" clip-path="url(#clipPath2)"/>
    </g>
    <g text-rendering="geometricPrecision" stroke-miterlimit="1.45" shape-rendering="geometricPrecision" transform="matrix(1,0,0,1,15,52)" stroke-linecap="butt">
      <path fill="none" d="M684.8226 0 L966.8226 0 L966.8226 53 L684.8226 53 Z" clip-path="url(#clipPath2)"/>
      <text x="687.6039" font-size="16px" y="32.0391" clip-path="url(#clipPath2)" font-family="sans-serif" stroke="none" xml:space="preserve">Rice Paddy Recoginition Algorithm</text>
    </g>
    <g fill="url(#linearGradient2)" text-rendering="geometricPrecision" shape-rendering="geometricPrecision" transform="matrix(1,0,0,1,15,52)" stroke="url(#linearGradient2)">
      <path d="M689.2926 73 L986.3226 73 L962.3526 167 L665.3226 167 Z" stroke="none" clip-path="url(#clipPath2)"/>
    </g>
    <g text-rendering="geometricPrecision" stroke-miterlimit="1.45" shape-rendering="geometricPrecision" transform="matrix(1,0,0,1,15,52)" stroke-linecap="butt">
      <path fill="none" d="M689.2926 73 L986.3226 73 L962.3526 167 L665.3226 167 Z" clip-path="url(#clipPath2)"/>
      <text x="795.6508" font-size="16px" y="116.2266" clip-path="url(#clipPath2)" font-family="sans-serif" stroke="none" xml:space="preserve">STEP 1:</text>
      <text x="705.0961" font-size="16px" y="134.8516" clip-path="url(#clipPath2)" font-family="sans-serif" stroke="none" xml:space="preserve">GEE : Get Sentinel-1 SAR data</text>
    </g>
    <g fill="url(#linearGradient3)" text-rendering="geometricPrecision" shape-rendering="geometricPrecision" transform="matrix(1,0,0,1,15,52)" stroke="url(#linearGradient3)">
      <path d="M693.1676 187 L976.0726 187 L958.4776 256 L675.5726 256 Z" stroke="none" clip-path="url(#clipPath2)"/>
    </g>
    <g text-rendering="geometricPrecision" stroke-miterlimit="1.45" shape-rendering="geometricPrecision" transform="matrix(1,0,0,1,15,52)" stroke-linecap="butt">
      <path fill="none" d="M693.1676 187 L976.0726 187 L958.4776 256 L675.5726 256 Z" clip-path="url(#clipPath2)"/>
      <text x="795.6508" font-size="16px" y="217.7266" clip-path="url(#clipPath2)" font-family="sans-serif" stroke="none" xml:space="preserve">STEP 2:</text>
      <text x="699.5687" font-size="16px" y="236.3516" clip-path="url(#clipPath2)" font-family="sans-serif" stroke="none" xml:space="preserve">GEE: Extract VH polarized band</text>
    </g>
    <g fill="url(#linearGradient4)" text-rendering="geometricPrecision" shape-rendering="geometricPrecision" transform="matrix(1,0,0,1,15,52)" stroke="url(#linearGradient4)">
      <path d="M637.1821 276 L1014.4631 276 L1014.4631 370 L637.1821 370 Z" stroke="none" clip-path="url(#clipPath2)"/>
    </g>
    <g text-rendering="geometricPrecision" stroke-miterlimit="1.45" shape-rendering="geometricPrecision" transform="matrix(1,0,0,1,15,52)" stroke-linecap="butt">
      <path fill="none" d="M637.1821 276 L1014.4631 276 L1014.4631 370 L637.1821 370 Z" clip-path="url(#clipPath2)"/>
      <text x="795.6508" font-size="16px" y="319.2266" clip-path="url(#clipPath2)" font-family="sans-serif" stroke="none" xml:space="preserve">STEP 3:</text>
      <text x="647.6976" font-size="16px" y="337.8516" clip-path="url(#clipPath2)" font-family="sans-serif" stroke="none" xml:space="preserve">GEE : Perform Multi-temporal image filtering</text>
    </g>
    <g fill="url(#linearGradient5)" text-rendering="geometricPrecision" shape-rendering="geometricPrecision" transform="matrix(1,0,0,1,15,52)" stroke="url(#linearGradient5)">
      <path d="M633.4357 473.4483 L1038.9921 473.4483 L1018.2095 554.9484 L612.6532 554.9484 Z" stroke="none" clip-path="url(#clipPath2)"/>
    </g>
    <g text-rendering="geometricPrecision" stroke-miterlimit="1.45" shape-rendering="geometricPrecision" transform="matrix(1,0,0,1,15,52)" stroke-linecap="butt">
      <path fill="none" d="M633.4357 473.4483 L1038.9921 473.4483 L1018.2095 554.9484 L612.6532 554.9484 Z" clip-path="url(#clipPath2)"/>
      <text x="795.6508" font-size="16px" y="501.1124" clip-path="url(#clipPath2)" font-family="sans-serif" stroke="none" xml:space="preserve">STEP 4:</text>
      <text x="626.7054" font-size="16px" y="519.7374" clip-path="url(#clipPath2)" font-family="sans-serif" stroke="none" xml:space="preserve">GEE : Create monthly composites for 2020 / 2021</text>
      <text x="736.3773" font-size="16px" y="538.3624" clip-path="url(#clipPath2)" font-family="sans-serif" stroke="none" xml:space="preserve">for the state of Punjab</text>
    </g>
    <g fill="url(#linearGradient6)" text-rendering="geometricPrecision" shape-rendering="geometricPrecision" transform="matrix(1,0,0,1,15,52)" stroke="url(#linearGradient6)">
      <path d="M503.6795 674.3967 L751.7095 674.3967 L727.7395 768.3967 L479.7095 768.3967 Z" stroke="none" clip-path="url(#clipPath2)"/>
    </g>
    <g text-rendering="geometricPrecision" stroke-miterlimit="1.45" shape-rendering="geometricPrecision" transform="matrix(1,0,0,1,15,52)" stroke-linecap="butt">
      <path fill="none" d="M503.6795 674.3967 L751.7095 674.3967 L727.7395 768.3967 L479.7095 768.3967 Z" clip-path="url(#clipPath2)"/>
      <text x="585.5377" font-size="16px" y="708.3107" clip-path="url(#clipPath2)" font-family="sans-serif" stroke="none" xml:space="preserve">STEP 5:</text>
      <text x="493.3502" font-size="16px" y="726.9357" clip-path="url(#clipPath2)" font-family="sans-serif" stroke="none" xml:space="preserve">Create training and validation </text>
      <text x="494.6861" font-size="16px" y="745.5607" clip-path="url(#clipPath2)" font-family="sans-serif" stroke="none" xml:space="preserve">samples from the composites.</text>
    </g>
    <g fill="url(#linearGradient7)" text-rendering="geometricPrecision" shape-rendering="geometricPrecision" transform="matrix(1,0,0,1,15,52)" stroke="url(#linearGradient7)">
      <path d="M480.2095 803.8967 L736.2095 803.8967 L736.2095 872.8967 L480.2095 872.8967 Z" stroke="none" clip-path="url(#clipPath2)"/>
    </g>
    <g text-rendering="geometricPrecision" stroke-miterlimit="1.45" shape-rendering="geometricPrecision" transform="matrix(1,0,0,1,15,52)" stroke-linecap="butt">
      <path fill="none" d="M480.2095 803.8967 L736.2095 803.8967 L736.2095 872.8967 L480.2095 872.8967 Z" clip-path="url(#clipPath2)"/>
      <text x="578.0377" font-size="16px" y="834.6232" clip-path="url(#clipPath2)" font-family="sans-serif" stroke="none" xml:space="preserve">STEP 6:</text>
      <text x="524.4439" font-size="16px" y="853.2482" clip-path="url(#clipPath2)" font-family="sans-serif" stroke="none" xml:space="preserve">Train Random Forest</text>
    </g>
    <g fill="url(#linearGradient8)" text-rendering="geometricPrecision" shape-rendering="geometricPrecision" transform="matrix(1,0,0,1,15,52)" stroke="url(#linearGradient8)">
      <path d="M544.2095 903.8967 L800.2095 903.8967 L800.2095 987.8967 L544.2095 987.8967 Z" stroke="none" clip-path="url(#clipPath2)"/>
    </g>
    <g text-rendering="geometricPrecision" stroke-miterlimit="1.45" shape-rendering="geometricPrecision" transform="matrix(1,0,0,1,15,52)" stroke-linecap="butt">
      <path fill="none" d="M544.2095 903.8967 L800.2095 903.8967 L800.2095 987.8967 L544.2095 987.8967 Z" clip-path="url(#clipPath2)"/>
      <text x="644.733" font-size="16px" y="942.1232" clip-path="url(#clipPath2)" font-family="sans-serif" stroke="none" xml:space="preserve">STEP 7</text>
      <text x="572.2955" font-size="16px" y="960.7482" clip-path="url(#clipPath2)" font-family="sans-serif" stroke="none" xml:space="preserve">Random Forest Classifier</text>
    </g>
    <g fill="url(#linearGradient9)" text-rendering="geometricPrecision" shape-rendering="geometricPrecision" transform="matrix(1,0,0,1,15,52)" stroke="url(#linearGradient9)">
      <path d="M834.6795 674.3967 L1092.7095 674.3967 L1068.7395 768.3967 L810.7095 768.3967 Z" stroke="none" clip-path="url(#clipPath2)"/>
    </g>
    <g text-rendering="geometricPrecision" stroke-miterlimit="1.45" shape-rendering="geometricPrecision" transform="matrix(1,0,0,1,15,52)" stroke-linecap="butt">
      <path fill="none" d="M834.6795 674.3967 L1092.7095 674.3967 L1068.7395 768.3967 L810.7095 768.3967 Z" clip-path="url(#clipPath2)"/>
      <text x="921.5377" font-size="16px" y="708.3107" clip-path="url(#clipPath2)" font-family="sans-serif" stroke="none" xml:space="preserve">STEP 8:</text>
      <text x="828.4752" font-size="16px" y="726.9357" clip-path="url(#clipPath2)" font-family="sans-serif" stroke="none" xml:space="preserve">GEE: Output : Seasonal paddy </text>
      <text x="911.0142" font-size="16px" y="745.5607" clip-path="url(#clipPath2)" font-family="sans-serif" stroke="none" xml:space="preserve">Rice Maps</text>
    </g>
    <g fill="url(#linearGradient10)" text-rendering="geometricPrecision" shape-rendering="geometricPrecision" transform="matrix(1,0,0,1,15,52)" stroke="url(#linearGradient10)">
      <path d="M782.7095 799.3967 L1005.7095 799.3967 L1005.7095 877.3967 L782.7095 877.3967 Z" stroke="none" clip-path="url(#clipPath2)"/>
    </g>
    <g text-rendering="geometricPrecision" stroke-miterlimit="1.45" shape-rendering="geometricPrecision" transform="matrix(1,0,0,1,15,52)" stroke-linecap="butt">
      <path fill="none" d="M782.7095 799.3967 L1005.7095 799.3967 L1005.7095 877.3967 L782.7095 877.3967 Z" clip-path="url(#clipPath2)"/>
      <text x="864.1158" xml:space="preserve" y="842.551" clip-path="url(#clipPath2)" font-family="sans-serif" stroke="none">Validation</text>
    </g>
    <g fill="url(#linearGradient11)" text-rendering="geometricPrecision" shape-rendering="geometricPrecision" transform="matrix(1,0,0,1,15,52)" stroke="url(#linearGradient11)">
      <path d="M830.2095 914.8967 L1086.2095 914.8967 L1086.2095 976.8967 L830.2095 976.8967 Z" stroke="none" clip-path="url(#clipPath2)"/>
    </g>
    <g text-rendering="geometricPrecision" stroke-miterlimit="1.45" shape-rendering="geometricPrecision" transform="matrix(1,0,0,1,15,52)" stroke-linecap="butt">
      <path fill="none" d="M830.2095 914.8967 L1086.2095 914.8967 L1086.2095 976.8967 L830.2095 976.8967 Z" clip-path="url(#clipPath2)"/>
      <text x="847.2623" xml:space="preserve" y="950.051" clip-path="url(#clipPath2)" font-family="sans-serif" stroke="none">Comparison with MODIS based maps</text>
    </g>
    <g fill="url(#linearGradient12)" text-rendering="geometricPrecision" shape-rendering="geometricPrecision" transform="matrix(1,0,0,1,15,52)" stroke="url(#linearGradient12)">
      <path d="M80.8913 385 L582.653 385 L516.7619 643.3967 L15.0001 643.3967 Z" stroke="none" clip-path="url(#clipPath2)"/>
    </g>
    <g text-rendering="geometricPrecision" stroke-miterlimit="1.45" shape-rendering="geometricPrecision" transform="matrix(1,0,0,1,15,52)" stroke-linecap="butt">
      <path fill="none" d="M80.8913 385 L582.653 385 L516.7619 643.3967 L15.0001 643.3967 Z" clip-path="url(#clipPath2)"/>
      <text x="205.1469" font-size="16px" y="491.7999" clip-path="url(#clipPath2)" font-family="sans-serif" stroke="none" xml:space="preserve">1. Energy Harvest Data</text>
      <text x="117.5805" font-size="16px" y="510.4249" clip-path="url(#clipPath2)" font-family="sans-serif" stroke="none" xml:space="preserve">2. Very high resolution Google Earth imagery</text>
      <text x="189.4281" font-size="16px" y="529.0499" clip-path="url(#clipPath2)" font-family="sans-serif" stroke="none" xml:space="preserve">3. Global field photo library</text>
      <text x="231.4906" font-size="16px" y="547.6749" clip-path="url(#clipPath2)" font-family="sans-serif" stroke="none" xml:space="preserve">4. Sentinel 2 MSI</text>
    </g>
    <g text-rendering="geometricPrecision" stroke-miterlimit="1.45" shape-rendering="geometricPrecision" transform="matrix(1,0,0,1,15,52)" stroke-linecap="butt">
      <path fill="none" d="M825.8226 53 L825.8226 64.9609" clip-path="url(#clipPath2)"/>
      <path d="M825.8226 72.9609 L830.8226 60.9609 L825.8226 63.9609 L820.8226 60.9609 Z" clip-path="url(#clipPath2)" stroke="none"/>
      <path fill="none" d="M825.8226 167 L825.8226 178.9609" clip-path="url(#clipPath2)"/>
      <path d="M825.8226 186.9609 L830.8226 174.9609 L825.8226 177.9609 L820.8226 174.9609 Z" clip-path="url(#clipPath2)" stroke="none"/>
      <path fill="none" d="M825.8226 256 L825.8226 267.9609" clip-path="url(#clipPath2)"/>
      <path d="M825.8226 275.9609 L830.8226 263.9609 L825.8226 266.9609 L820.8226 263.9609 Z" clip-path="url(#clipPath2)" stroke="none"/>
      <path fill="none" d="M825.8226 370 L825.8226 465.4231" clip-path="url(#clipPath2)"/>
      <path d="M825.8226 473.4231 L830.8226 461.4231 L825.8226 464.4231 L820.8226 461.4231 Z" clip-path="url(#clipPath2)" stroke="none"/>
      <path fill="none" d="M683.7097 554.9775 L683.7095 666.3676" clip-path="url(#clipPath2)"/>
      <path d="M683.7095 674.3676 L688.7095 662.3676 L683.7095 665.3676 L678.7095 662.3676 Z" clip-path="url(#clipPath2)" stroke="none"/>
      <path fill="none" d="M547.7095 768.3967 L547.7095 783.8967 L608.2095 783.8967 L608.2095 795.8576" clip-path="url(#clipPath2)"/>
      <path d="M608.2095 803.8576 L613.2095 791.8576 L608.2095 794.8576 L603.2095 791.8576 Z" clip-path="url(#clipPath2)" stroke="none"/>
      <path fill="none" d="M608.2095 872.8967 L608.2095 895.8664" clip-path="url(#clipPath2)"/>
      <path d="M608.2095 903.8664 L613.2095 891.8664 L608.2095 894.8664 L603.2095 891.8664 Z" clip-path="url(#clipPath2)" stroke="none"/>
      <path fill="none" d="M736.2095 903.8664 L736.2095 888.3967 L767.2095 888.3967 L767.2095 570.4484 L825.8226 570.4484 L825.8226 562.9786" clip-path="url(#clipPath2)"/>
      <path d="M825.8226 554.9786 L820.8226 566.9786 L825.8226 563.9786 L830.8226 566.9786 Z" clip-path="url(#clipPath2)" stroke="none"/>
      <path fill="none" d="M967.9355 554.9786 L967.9355 570.4484 L951.7095 570.4484 L951.7095 666.3713" clip-path="url(#clipPath2)"/>
      <path d="M951.7095 674.3713 L956.7095 662.3713 L951.7095 665.3713 L946.7095 662.3713 Z" clip-path="url(#clipPath2)" stroke="none"/>
      <path fill="none" d="M881.2095 768.3967 L881.2095 783.8967 L949.9595 783.8967 L949.9595 791.3664" clip-path="url(#clipPath2)"/>
      <path d="M949.9595 799.3664 L954.9595 787.3664 L949.9595 790.3664 L944.9595 787.3664 Z" clip-path="url(#clipPath2)" stroke="none"/>
      <path fill="none" d="M683.7095 768.3967 L683.7095 783.8967 L838.4595 783.8967 L838.4595 791.3664" clip-path="url(#clipPath2)"/>
      <path d="M838.4595 799.3664 L843.4595 787.3664 L838.4595 790.3664 L833.4595 787.3664 Z" clip-path="url(#clipPath2)" stroke="none"/>
      <path fill="none" d="M894.2095 877.3967 L894.2095 906.86" clip-path="url(#clipPath2)"/>
      <path d="M894.2095 914.86 L899.2095 902.86 L894.2095 905.86 L889.2095 902.86 Z" clip-path="url(#clipPath2)" stroke="none"/>
      <path fill="none" d="M1022.2095 768.3967 L1022.2095 906.8609" clip-path="url(#clipPath2)"/>
      <path d="M1022.2095 914.8609 L1027.2095 902.8609 L1022.2095 905.8609 L1017.2095 902.8609 Z" clip-path="url(#clipPath2)" stroke="none"/>
      <path fill="none" d="M298.8266 643.3967 L298.8266 658.8967 L547.7095 658.8967 L547.7095 666.3664" clip-path="url(#clipPath2)"/>
      <path d="M547.7095 674.3664 L552.7095 662.3664 L547.7095 665.3664 L542.7095 662.3664 Z" clip-path="url(#clipPath2)" stroke="none"/>
    </g>
  </g>
</svg>
